<svg width="1000" height="1009.9999999999999" xmlns="http://www.w3.org/2000/svg">
    <!-- Created with Method Draw - http://github.com/duopixel/Method-Draw/ -->
    <g>
        <path id="svg_10" d="m414.286484,399.066499l11.459047,0l3.540934,-10.070024l3.540936,10.070024l11.459045,0l-9.270547,6.223546l3.541117,10.070024l-9.270551,-6.223715l-9.270549,6.223715l3.541118,-10.070024l-9.27055,-6.223546z" stroke-opacity="null" stroke-width="1.5" stroke="whitesmoke" fill="whitesmoke"/>
        <path id="svg_11" d="m468.559191,262.617464l13.889762,0l4.292043,-11.111763l4.292046,11.111763l13.889759,0l-11.237033,6.867369l4.292265,11.111763l-11.237037,-6.867556l-11.237035,6.867556l4.292267,-11.111763l-11.237036,-6.867369z" stroke-opacity="null" stroke-width="1.5" stroke="whitesmoke" fill="whitesmoke"/>
        <path id="svg_12" d="m461.903738,146.488477l8.681102,0l2.682527,-10.764516l2.682529,10.764516l8.6811,0l-7.023146,6.652761l2.682666,10.764516l-7.023149,-6.652942l-7.023148,6.652942l2.682667,-10.764516l-7.023148,-6.652761z" stroke-opacity="null" stroke-width="1.5" stroke="whitesmoke" fill="whitesmoke"/>
        <path id="svg_13" d="m354.586565,311.6815l7.292127,0l2.253323,-5.903134l2.253325,5.903134l7.292126,0l-5.899444,3.648295l2.25344,5.903134l-5.899446,-3.648395l-5.899445,3.648395l2.253441,-5.903134l-5.899446,-3.648295z" stroke-opacity="null" stroke-width="1.5" stroke="whitesmoke" fill="whitesmoke"/>
        <path id="svg_14" d="m182.72303,265.896971l7.986611,0l2.467924,-6.250362l2.467926,6.250362l7.98661,0l-6.461292,3.862892l2.468052,6.250362l-6.461295,-3.862997l-6.461294,3.862997l2.468053,-6.250362l-6.461294,-3.862892z" stroke-opacity="null" stroke-width="1.5" stroke="whitesmoke" fill="whitesmoke"/>
        <path id="svg_15" d="m151.063957,449.931076l11.459052,0l3.540935,-9.375547l3.540937,9.375547l11.45905,0l-9.270551,5.79434l3.541119,9.375547l-9.270555,-5.794498l-9.270553,5.794498l3.54112,-9.375547l-9.270554,-5.79434z" stroke-opacity="null" stroke-width="1.5" stroke="whitesmoke" fill="whitesmoke"/>
        <path id="svg_16" d="m143.827614,537.251874l12.50078,0l3.862837,-10.764535l3.862839,10.764535l12.500777,0l-10.113325,6.652772l3.863037,10.764535l-10.113329,-6.652954l-10.113327,6.652954l3.863038,-10.764535l-10.113328,-6.652772z" stroke-opacity="null" stroke-width="1.5" stroke="whitesmoke" fill="whitesmoke"/>
        <path id="svg_17" d="m276.795702,486.807376l10.070084,0l3.111734,-10.070028l3.111735,10.070028l10.070083,0l-8.146855,6.223548l3.111895,10.070028l-8.146858,-6.223718l-8.146856,6.223718l3.111895,-10.070028l-8.146857,-6.223548z" stroke-opacity="null" stroke-width="1.5" stroke="whitesmoke" fill="whitesmoke"/>
        <path id="svg_18" d="m563.536403,146.784814l12.848021,0l3.970137,-11.459004l3.97014,11.459004l12.848019,0l-10.394248,7.081973l3.970343,11.459004l-10.394253,-7.082165l-10.394251,7.082165l3.970344,-11.459004l-10.394252,-7.081973z" stroke-opacity="null" stroke-width="1.5" stroke="whitesmoke" fill="whitesmoke"/>
        <path id="svg_19" d="m729.972626,309.812935l12.500801,0l3.862844,-10.764519l3.862846,10.764519l12.500799,0l-10.113342,6.652762l3.863044,10.764519l-10.113346,-6.652944l-10.113344,6.652944l3.863045,-10.764519l-10.113345,-6.652762z" stroke-opacity="null" stroke-width="1.5" stroke="whitesmoke" fill="whitesmoke"/>
        <path id="svg_20" d="m772.486297,436.723569l14.584259,0l4.506648,-12.847973l4.506651,12.847973l14.584256,0l-11.798891,7.940393l4.506881,12.847973l-11.798897,-7.94061l-11.798894,7.94061l4.506883,-12.847973l-11.798895,-7.940393z" stroke-opacity="null" stroke-width="1.5" stroke="whitesmoke" fill="whitesmoke"/>
        <path id="svg_21" d="m653.086272,512.619059l13.889746,0l4.292039,-11.45901l4.292041,11.45901l13.889744,0l-11.23702,7.081977l4.292261,11.45901l-11.237025,-7.08217l-11.237023,7.08217l4.292262,-11.45901l-11.237024,-7.081977z" stroke-opacity="null" stroke-width="1.5" stroke="whitesmoke" fill="whitesmoke"/>
        <path id="svg_22" d="m577.104585,636.961811l13.889763,0l4.292044,-10.070038l4.292046,10.070038l13.889761,0l-11.237034,6.223554l4.292266,10.070038l-11.237039,-6.223724l-11.237036,6.223724l4.292267,-10.070038l-11.237038,-6.223554z" stroke-opacity="null" stroke-width="1.5" stroke="whitesmoke" fill="whitesmoke"/>
        <path id="svg_23" d="m700.122669,615.11552l8.333859,0l2.575226,-9.028296l2.575228,9.028296l8.333857,0l-6.742221,5.57973l2.57536,9.028296l-6.742224,-5.579882l-6.742222,5.579882l2.57536,-9.028296l-6.742223,-5.57973z" stroke-opacity="null" stroke-width="1.5" stroke="whitesmoke" fill="whitesmoke"/>
        <path id="svg_24" d="m510.168193,772.021884l9.375585,0l2.897128,-7.639334l2.89713,7.639334l9.375584,0l-7.584994,4.721314l2.897278,7.639334l-7.584997,-4.721443l-7.584995,4.721443l2.897279,-7.639334l-7.584996,-4.721314z" stroke-opacity="null" stroke-width="1.5" stroke="whitesmoke" fill="whitesmoke"/>
        <path id="svg_25" d="m303.02752,783.360891l10.417324,0l3.219033,-9.028286l3.219035,9.028286l10.417322,0l-8.427777,5.579724l3.2192,9.028286l-8.42778,-5.579876l-8.427778,5.579876l3.219201,-9.028286l-8.427779,-5.579724z" stroke-opacity="null" stroke-width="1.5" stroke="whitesmoke" fill="whitesmoke"/>
        <path id="svg_26" d="m347.350174,699.795542l11.111815,0l3.433636,-8.681059l3.433638,8.681059l11.111813,0l-8.989631,5.365128l3.433814,8.681059l-8.989634,-5.365274l-8.989633,5.365274l3.433815,-8.681059l-8.989634,-5.365128z" stroke-opacity="null" stroke-width="1.5" stroke="whitesmoke" fill="whitesmoke"/>
        <path id="svg_27" d="m723.640771,747.52633l10.070075,0l3.111731,-9.375544l3.111732,9.375544l10.070073,0l-8.146847,5.794338l3.111892,9.375544l-8.14685,-5.794496l-8.146848,5.794496l3.111892,-9.375544l-8.146849,-5.794338z" stroke-opacity="null" stroke-width="1.5" stroke="whitesmoke" fill="whitesmoke"/>
        <path id="svg_29" d="m540.922758,868.040842l9.722819,0l3.004426,-8.68107l3.004428,8.68107l9.722818,0l-7.865912,5.365135l3.004581,8.68107l-7.865915,-5.365281l-7.865913,5.365281l3.004582,-8.68107l-7.865914,-5.365135z" fill-opacity="null" stroke-opacity="null" stroke-width="1.5" stroke="whitesmoke" fill="whitesmoke"/>
        <path id="svg_30" d="m337.400195,868.315221l10.070082,0l3.111733,-10.764532l3.111735,10.764532l10.07008,0l-8.146853,6.65277l3.111894,10.764532l-8.146856,-6.652952l-8.146854,6.652952l3.111895,-10.764532l-8.146855,-6.65277z" fill-opacity="null" stroke-opacity="null" stroke-width="1.5" stroke="whitesmoke" fill="whitesmoke"/>
        <path id="svg_31" d="m177.295769,754.835518l10.070078,0l3.111732,-7.639327l3.111733,7.639327l10.070076,0l-8.146849,4.72131l3.111893,7.639327l-8.146853,-4.721438l-8.146851,4.721438l3.111894,-7.639327l-8.146852,-4.72131z" fill-opacity="null" stroke-opacity="null" stroke-width="1.5" stroke="whitesmoke" fill="whitesmoke"/>
        <path id="svg_32" d="m803.240765,298.589152l13.195289,0l4.077446,-11.806241l4.077448,11.806241l13.195287,0l-10.675194,7.296574l4.077657,11.806241l-10.675199,-7.296773l-10.675196,7.296773l4.077658,-11.806241l-10.675197,-7.296574z" fill-opacity="null" stroke-opacity="null" stroke-width="1.5" stroke="whitesmoke" fill="whitesmoke"/>
        <path id="svg_33" d="m567.154633,61.53415l10.764586,0l3.32634,-9.028307l3.326342,9.028307l10.764584,0l-8.708717,5.579737l3.326512,9.028307l-8.708721,-5.579889l-8.708719,5.579889l3.326513,-9.028307l-8.70872,-5.579737z" fill-opacity="null" stroke-opacity="null" stroke-width="1.5" stroke="whitesmoke" fill="whitesmoke"/>
        <path id="svg_34" d="m690.172611,158.247557l12.153528,0l3.755534,-10.764518l3.755536,10.764518l12.153526,0l-9.832393,6.652762l3.755728,10.764518l-9.832397,-6.652943l-9.832395,6.652943l3.755729,-10.764518l-9.832396,-6.652762z" fill-opacity="null" stroke-opacity="null" stroke-width="1.5" stroke="whitesmoke" fill="whitesmoke"/>
        <path id="svg_35" d="m805.049836,488.479287l10.070065,0l3.111728,-9.028314l3.111729,9.028314l10.070063,0l-8.146839,5.579741l3.111889,9.028314l-8.146842,-5.579893l-8.146841,5.579893l3.111889,-9.028314l-8.146841,-5.579741z" fill-opacity="null" stroke-opacity="null" stroke-width="1.5" stroke="whitesmoke" fill="whitesmoke"/>
    </g>
    <animateTransform attributeType="xml" attributeName="transform" type="rotate" from="360 " to="0" dur="200s"
                      additive="sum" repeatCount="indefinite"/>
</svg>